<svg xmlns="http://www.w3.org/2000/svg" viewBox="0 0 100 100"><rect fill="#B7D7F5"/><g transform="translate(11.0 11.0) scale(1.21875)"><ellipse cx="32" cy="52" rx="25" ry="9.5" transform="rotate(0 32 52)" fill="#3B6787" stroke="#B7D7F5" stroke-width="2.4"/><path d="M18.25 49.62 q 8.75 -5.23 20.00 -2.85" transform="rotate(0 32 52)" fill="none" stroke="#F3F3E9" stroke-width="1.6" stroke-linecap="round" opacity="0.85"/><ellipse cx="35" cy="36" rx="17.5" ry="8.5" transform="rotate(-5 35 36)" fill="#3B6787" stroke="#B7D7F5" stroke-width="2.4"/><path d="M25.38 33.88 q 6.12 -4.68 14.00 -2.55" transform="rotate(-5 35 36)" fill="none" stroke="#F3F3E9" stroke-width="1.6" stroke-linecap="round" opacity="0.85"/><ellipse cx="30" cy="21.5" rx="11.5" ry="6.8" transform="rotate(7 30 21.5)" fill="#3B6787" stroke="#B7D7F5" stroke-width="2.4"/><path d="M23.68 19.80 q 4.02 -3.74 9.20 -2.04" transform="rotate(7 30 21.5)" fill="none" stroke="#F3F3E9" stroke-width="1.6" stroke-linecap="round" opacity="0.85"/><ellipse cx="33" cy="10" rx="5.2" ry="4.2" transform="rotate(-8 33 10)" fill="#3B6787" stroke="#B7D7F5" stroke-width="2.4"/><path d="M30.14 8.95 q 1.82 -2.31 4.16 -1.26" transform="rotate(-8 33 10)" fill="none" stroke="#F3F3E9" stroke-width="1.6" stroke-linecap="round" opacity="0.85"/></g></svg>